<svg width="179" height="46" viewBox="0 0 179 46" fill="none" xmlns="http://www.w3.org/2000/svg">
<path d="M0.136 12.36H6.6V32.008C6.6 33.16 6.77067 34.2267 7.112 35.208C7.496 36.1467 8.02933 36.9787 8.712 37.704C9.39467 38.3867 10.2053 38.9413 11.144 39.368C12.0827 39.752 13.128 39.944 14.28 39.944C16.6267 39.944 18.5467 39.1973 20.04 37.704C21.5333 36.168 22.28 34.184 22.28 31.752V12.36H28.744V45H22.28V41.352C21.1707 42.7173 19.784 43.784 18.12 44.552C16.456 45.2773 14.6427 45.64 12.68 45.64C10.8027 45.64 9.096 45.32 7.56 44.68C6.024 44.04 4.70133 43.1653 3.592 42.056C2.48267 40.9467 1.62933 39.6453 1.032 38.152C0.434667 36.616 0.136 34.9733 0.136 33.224V12.36ZM35.267 0.199997H51.651C53.4857 0.199997 55.1923 0.519997 56.771 1.16C58.3923 1.75733 59.779 2.58933 60.931 3.656C62.1257 4.68 63.043 5.91733 63.683 7.368C64.3657 8.776 64.707 10.2907 64.707 11.912C64.707 13.832 64.195 15.6027 63.171 17.224C62.1897 18.8027 60.867 20.0827 59.203 21.064C61.763 21.9173 63.811 23.368 65.347 25.416C66.9257 27.4213 67.715 29.7253 67.715 32.328C67.715 34.0773 67.3737 35.72 66.691 37.256C66.0083 38.792 65.0483 40.136 63.811 41.288C62.6163 42.44 61.187 43.3573 59.523 44.04C57.9017 44.68 56.131 45 54.211 45H35.267V0.199997ZM41.987 5.896V19.016H51.139C52.1203 19.016 53.0163 18.8453 53.827 18.504C54.6803 18.1627 55.4057 17.6933 56.003 17.096C56.6003 16.4987 57.0697 15.816 57.411 15.048C57.7523 14.2373 57.923 13.384 57.923 12.488C57.923 10.6107 57.283 9.05333 56.003 7.816C54.7657 6.536 53.1443 5.896 51.139 5.896H41.987ZM53.315 39.304C55.5763 39.304 57.411 38.6 58.819 37.192C60.227 35.7413 60.931 33.9707 60.931 31.88C60.931 30.856 60.739 29.9173 60.355 29.064C59.971 28.168 59.4377 27.4 58.755 26.76C58.115 26.0773 57.3257 25.544 56.387 25.16C55.4483 24.776 54.4243 24.584 53.315 24.584H41.987V39.304H53.315ZM106.742 28.68C106.742 31.0267 106.273 33.2453 105.334 35.336C104.438 37.384 103.201 39.1973 101.622 40.776C100.043 42.312 98.1873 43.528 96.054 44.424C93.9207 45.32 91.638 45.768 89.206 45.768C86.774 45.768 84.4913 45.32 82.358 44.424C80.2247 43.528 78.3687 42.312 76.79 40.776C75.2113 39.1973 73.9527 37.384 73.014 35.336C72.118 33.2453 71.67 31.0267 71.67 28.68C71.67 26.3333 72.118 24.136 73.014 22.088C73.9527 19.9973 75.2113 18.184 76.79 16.648C78.3687 15.112 80.2247 13.896 82.358 13C84.4913 12.104 86.774 11.656 89.206 11.656C91.638 11.656 93.9207 12.104 96.054 13C98.1873 13.896 100.043 15.112 101.622 16.648C103.201 18.184 104.438 19.9973 105.334 22.088C106.273 24.136 106.742 26.3333 106.742 28.68ZM100.278 28.68C100.278 27.1013 99.9793 25.6293 99.382 24.264C98.8273 22.8987 98.038 21.704 97.014 20.68C96.0327 19.656 94.8593 18.8667 93.494 18.312C92.1713 17.7147 90.742 17.416 89.206 17.416C87.67 17.416 86.2193 17.7147 84.854 18.312C83.5313 18.8667 82.358 19.656 81.334 20.68C80.3527 21.704 79.5633 22.8987 78.966 24.264C78.4113 25.6293 78.134 27.1013 78.134 28.68C78.134 30.2587 78.4113 31.752 78.966 33.16C79.5633 34.5253 80.3527 35.72 81.334 36.744C82.358 37.768 83.5313 38.5787 84.854 39.176C86.2193 39.7307 87.67 40.008 89.206 40.008C90.742 40.008 92.1713 39.7307 93.494 39.176C94.8593 38.5787 96.0327 37.768 97.014 36.744C98.038 35.72 98.8273 34.5253 99.382 33.16C99.9793 31.752 100.278 30.2587 100.278 28.68ZM145.68 28.68C145.68 31.0267 145.21 33.2453 144.272 35.336C143.376 37.384 142.138 39.1973 140.56 40.776C138.981 42.312 137.125 43.528 134.992 44.424C132.858 45.32 130.576 45.768 128.144 45.768C125.712 45.768 123.429 45.32 121.296 44.424C119.162 43.528 117.306 42.312 115.728 40.776C114.149 39.1973 112.89 37.384 111.952 35.336C111.056 33.2453 110.608 31.0267 110.608 28.68C110.608 26.3333 111.056 24.136 111.952 22.088C112.89 19.9973 114.149 18.184 115.728 16.648C117.306 15.112 119.162 13.896 121.296 13C123.429 12.104 125.712 11.656 128.144 11.656C130.576 11.656 132.858 12.104 134.992 13C137.125 13.896 138.981 15.112 140.56 16.648C142.138 18.184 143.376 19.9973 144.272 22.088C145.21 24.136 145.68 26.3333 145.68 28.68ZM139.216 28.68C139.216 27.1013 138.917 25.6293 138.32 24.264C137.765 22.8987 136.976 21.704 135.952 20.68C134.97 19.656 133.797 18.8667 132.432 18.312C131.109 17.7147 129.68 17.416 128.144 17.416C126.608 17.416 125.157 17.7147 123.792 18.312C122.469 18.8667 121.296 19.656 120.272 20.68C119.29 21.704 118.501 22.8987 117.904 24.264C117.349 25.6293 117.072 27.1013 117.072 28.68C117.072 30.2587 117.349 31.752 117.904 33.16C118.501 34.5253 119.29 35.72 120.272 36.744C121.296 37.768 122.469 38.5787 123.792 39.176C125.157 39.7307 126.608 40.008 128.144 40.008C129.68 40.008 131.109 39.7307 132.432 39.176C133.797 38.5787 134.97 37.768 135.952 36.744C136.976 35.72 137.765 34.5253 138.32 33.16C138.917 31.752 139.216 30.2587 139.216 28.68ZM157.225 0.199997V26.76L170.409 12.36H178.089L163.241 28.104L178.857 45H170.729L157.225 30.024V45H150.761V0.199997H157.225Z" fill="black"/>
</svg>
